STARTFONT 2.1
COMMENT
COMMENT Converted from OpenType font "Q:\font stuff\winfont\Break.ttf" by "otf2bdf 3.0".
COMMENT
FONT -FreeType-Break-Medium-R-Normal--84-840-72-72-P-354-ISO10646-1
SIZE 84 72 72
FONTBOUNDINGBOX 97 71 0 -6
STARTPROPERTIES 19
FOUNDRY "FreeType"
FAMILY_NAME "Break"
WEIGHT_NAME "Medium"
SLANT "R"
SETWIDTH_NAME "Normal"
ADD_STYLE_NAME ""
PIXEL_SIZE 84
POINT_SIZE 840
RESOLUTION_X 72
RESOLUTION_Y 72
SPACING "P"
AVERAGE_WIDTH 354
CHARSET_REGISTRY "ISO10646"
CHARSET_ENCODING "1"
FONT_ASCENT 56
FONT_DESCENT 14
COPYRIGHT "design: onezero/©2003onezero/contact: onezero@gmx.ch"
_OTF_FONTFILE "Q:\font stuff\winfont\Break.ttf"
_OTF_PSNAME "Break"
ENDPROPERTIES
CHARS 99
STARTCHAR 0020
ENCODING 32
SWIDTH 833 0
DWIDTH 70 0
BBX 0 0 0 0
BITMAP
ENDCHAR
STARTCHAR 0021
ENCODING 33
SWIDTH 142 0
DWIDTH 12 0
BBX 5 56 1 0
BITMAP
F8
F8
F8
F8
F8
F8
F8
F8
F8
F8
F8
F8
F8
F8
F8
F8
F8
F8
F8
F8
F8
F8
F8
F8
F8
F8
F8
F8
F8
F8
F8
F8
F8
F8
F8
F8
F8
F8
F8
F8
F8
F8
F8
F8
F8
00
00
00
00
00
00
F8
F8
F8
F8
F8
ENDCHAR
STARTCHAR 0022
ENCODING 34
SWIDTH 583 0
DWIDTH 49 0
BBX 15 9 1 47
BITMAP
F83E
F83E
F83E
F83E
F83E
F83E
F83E
F83E
F83E
ENDCHAR
STARTCHAR 0026
ENCODING 38
SWIDTH 642 0
DWIDTH 54 0
BBX 50 56 1 0
BITMAP
0003FFFFC00000
000FFFFFF80000
003FFFFFFC0000
007FFFFFFE0000
00FFFFFFFF0000
00FF00007F8000
01FC00001FC000
03F800000FC000
03F0000007C000
03E0000007E000
03E0000007E000
03E0000003E000
03E0000003E000
03E0000003E000
03E0000003E000
03E0000007E000
03E0000007E000
03F0000007C000
03F800000FC000
01FC00001FC000
01FE0000FF8000
00FF0003FF0000
007F800FFE0000
003FC07FFC0000
001FE1FFF80000
000FFFFFC00000
0007FFFF000000
0003FFFC000000
0007FFE0000000
001FFF80000000
007FFF80000000
03FFFFC0000000
07FF9FE0000000
0FFE0FF0000000
1FF807F8000000
3FC003FC000000
7F0001FE000000
7E0000FF000000
7C00007F800000
FC00003FC00000
F800001FE00000
F800000FF3E000
F8000007FBE000
F8000003FFE000
F8000001FFE000
F8000000FFE000
FC0000007FE000
FC0000003FC000
7E0000001FE000
7F0000001FF000
3FE00000FFF800
1FFFFFFFFFFC00
0FFFFFFFFFFE00
07FFFFFFFCFF00
03FFFFFFF87F80
007FFFFFC03FC0
ENDCHAR
STARTCHAR 0027
ENCODING 39
SWIDTH 333 0
DWIDTH 28 0
BBX 0 0 0 0
BITMAP
ENDCHAR
STARTCHAR 0028
ENCODING 40
SWIDTH 142 0
DWIDTH 12 0
BBX 9 68 1 -6
BITMAP
0400
0E00
1F00
3F80
7F00
7E00
7C00
FC00
FC00
F800
F800
F800
F800
F800
F800
F800
F800
F800
F800
F800
F800
F800
F800
F800
F800
F800
F800
F800
F800
F800
F800
F800
F800
F800
F800
F800
F800
F800
F800
F800
F800
F800
F800
F800
F800
F800
F800
F800
F800
F800
F800
F800
F800
F800
F800
F800
F800
F800
F800
FC00
FC00
7E00
7F00
3F80
3F80
1F00
0E00
0400
ENDCHAR
STARTCHAR 0029
ENCODING 41
SWIDTH 178 0
DWIDTH 15 0
BBX 9 68 0 -6
BITMAP
1000
3800
7C00
FE00
7F00
3F00
1F80
1F80
0F80
0F80
0F80
0F80
0F80
0F80
0F80
0F80
0F80
0F80
0F80
0F80
0F80
0F80
0F80
0F80
0F80
0F80
0F80
0F80
0F80
0F80
0F80
0F80
0F80
0F80
0F80
0F80
0F80
0F80
0F80
0F80
0F80
0F80
0F80
0F80
0F80
0F80
0F80
0F80
0F80
0F80
0F80
0F80
0F80
0F80
0F80
0F80
0F80
0F80
0F80
0F80
0F80
1F80
3F80
7F00
7E00
3E00
1C00
0800
ENDCHAR
STARTCHAR 002C
ENCODING 44
SWIDTH 142 0
DWIDTH 12 0
BBX 5 10 1 -5
BITMAP
F8
F8
F8
F8
F8
F8
F8
F8
F8
F8
ENDCHAR
STARTCHAR 002D
ENCODING 45
SWIDTH 404 0
DWIDTH 34 0
BBX 27 6 1 26
BITMAP
FFFFFFE0
FFFFFFE0
FFFFFFE0
FFFFFFE0
FFFFFFE0
FFFFFFE0
ENDCHAR
STARTCHAR 002E
ENCODING 46
SWIDTH 142 0
DWIDTH 12 0
BBX 5 5 1 0
BITMAP
F8
F8
F8
F8
F8
ENDCHAR
STARTCHAR 002F
ENCODING 47
SWIDTH 357 0
DWIDTH 30 0
BBX 29 58 0 -1
BITMAP
00000080
000000F0
000001F8
000001F8
000003F0
000003F0
000007E0
000007E0
000007C0
00000FC0
00000FC0
00001F80
00001F80
00003F00
00003F00
00003E00
00007E00
00007C00
0000FC00
0000FC00
0001F800
0001F800
0003F000
0003F000
0003E000
0007E000
0007E000
000FC000
000FC000
001F8000
001F8000
001F0000
003F0000
003F0000
007E0000
007E0000
00FC0000
00FC0000
00F80000
01F80000
01F00000
03F00000
03F00000
07E00000
07E00000
0FC00000
0FC00000
0F800000
1F800000
1F800000
3F000000
3F000000
7E000000
7E000000
7C000000
FC000000
7C000000
08000000
ENDCHAR
STARTCHAR 0030
ENCODING 48
SWIDTH 583 0
DWIDTH 49 0
BBX 43 56 1 0
BITMAP
007FFFFFC000
03FFFFFFF800
07FFFFFFFC00
0FFFFFFFFE00
1FFFFFFFFF00
3FC000007F80
7F0000001FC0
7E0000000FC0
7C00000007C0
FC00000007E0
F800000007E0
F800000003E0
F800000003E0
F800000003E0
F800000103E0
F800000303E0
F800000703E0
F800000F03E0
F800001F03E0
F800003F03E0
F800007F03E0
F80000FF03E0
F80001FE03E0
F80003FC03E0
F80007F803E0
F8000FF003E0
F8001FE003E0
F8003FC003E0
F8007F8003E0
F800FF0003E0
F801FE0003E0
F803FC0003E0
F807F80003E0
F80FF00003E0
F81FE00003E0
F81FC00003E0
F81F800003E0
F81F000003E0
F81E000003E0
F81C000003E0
F818000003E0
F810000003E0
F800000003E0
F800000003E0
F800000003E0
F800000007E0
FC00000007E0
FC00000007C0
7E0000000FC0
7F0000001FC0
3FE00000FF80
1FFFFFFFFF00
0FFFFFFFFE00
07FFFFFFFC00
03FFFFFFF800
007FFFFFC000
ENDCHAR
STARTCHAR 0031
ENCODING 49
SWIDTH 535 0
DWIDTH 45 0
BBX 39 56 0 0
BITMAP
FFFFFFFE00
FFFFFFFF80
FFFFFFFFC0
FFFFFFFFF0
FFFFFFFFF0
00000007F8
00000001FC
00000000FC
000000007E
000000007E
000000003E
000000003E
000000003E
000000003E
000000003E
000000003E
000000003E
000000003E
000000003E
000000003E
000000003E
000000003E
000000003E
000000003E
000000003E
000000003E
000000003E
000000003E
000000003E
000000003E
000000003E
000000003E
000000003E
000000003E
000000003E
000000003E
000000003E
000000003E
000000003E
000000003E
000000003E
000000003E
000000003E
000000003E
000000003E
000000003E
000000003E
000000003E
000000003E
000000003E
000000003E
000000003E
000000003E
000000003E
000000003E
000000003E
ENDCHAR
STARTCHAR 0032
ENCODING 50
SWIDTH 583 0
DWIDTH 49 0
BBX 43 56 1 0
BITMAP
007FFFFFC000
03FFFFFFF800
07FFFFFFFC00
0FFFFFFFFE00
1FFFFFFFFF00
3FC000007F80
7F0000001FC0
7E0000000FC0
FC00000007C0
FC00000007E0
F800000007E0
F800000003E0
F800000003E0
F800000003E0
F800000003E0
0000000007E0
0000000007E0
0000000007C0
000000000FC0
000000001FC0
000000007F80
00000003FF00
0000000FFE00
0000007FFC00
000001FFF800
00000FFFC000
00003FFF0000
0000FFFC0000
0007FFE00000
001FFF800000
00FFFC000000
03FFF0000000
07FFC0000000
0FFE00000000
1FF800000000
3FC000000000
7F0000000000
7E0000000000
7C0000000000
FC0000000000
F80000000000
F80000000000
F80000000000
F80000000000
F80000000000
F80000000000
FC0000000000
FC0000000000
7E0000000000
7F0000000000
3FE000000000
1FFFFFFFFFE0
0FFFFFFFFFE0
07FFFFFFFFE0
03FFFFFFFFE0
007FFFFFFFE0
ENDCHAR
STARTCHAR 0033
ENCODING 51
SWIDTH 535 0
DWIDTH 45 0
BBX 39 56 1 0
BITMAP
FFFFFFFE00
FFFFFFFF80
FFFFFFFFC0
FFFFFFFFF0
FFFFFFFFF0
00000007F8
00000001FC
00000000FC
000000007E
000000007E
000000003E
000000003E
000000003E
000000003E
000000003E
000000003E
000000003E
000000003E
000000003E
000000003E
000000003E
000000003E
000000003E
000000003E
0001FFFFFE
0001FFFFFE
0001FFFFFE
0001FFFFFE
0001FFFFFE
0001FFFFFE
000000003E
000000003E
000000003E
000000003E
000000003E
000000003E
000000003E
000000003E
000000003E
000000003E
000000003E
000000003E
000000003E
000000003E
000000003E
000000003E
000000007E
000000007E
00000000FC
00000001FC
0000000FF8
FFFFFFFFF0
FFFFFFFFF0
FFFFFFFFC0
FFFFFFFF80
FFFFFFFE00
ENDCHAR
STARTCHAR 0034
ENCODING 52
SWIDTH 583 0
DWIDTH 49 0
BBX 43 56 1 0
BITMAP
F800000003E0
F800000003E0
F800000003E0
F800000003E0
F800000003E0
F800000003E0
F800000003E0
F800000003E0
F800000003E0
F800000003E0
F800000003E0
F800000003E0
F800000003E0
F800000003E0
F800000003E0
F800000003E0
F800000003E0
F800000003E0
F800000003E0
F800000003E0
F800000003E0
F800000003E0
F800000003E0
F800000003E0
F800000003E0
F800000003E0
F800000003E0
FC00000003E0
FC00000003E0
7E00000003E0
7F00000003E0
3FC0000003E0
3FFFFFFFFFE0
1FFFFFFFFFE0
0FFFFFFFFFE0
03FFFFFFFFE0
00FFFFFFFFE0
0000000003E0
0000000003E0
0000000003E0
0000000003E0
0000000003E0
0000000003E0
0000000003E0
0000000003E0
0000000003E0
0000000003E0
0000000003E0
0000000003E0
0000000003E0
0000000003E0
0000000003E0
0000000003E0
0000000003E0
0000000003E0
0000000003E0
ENDCHAR
STARTCHAR 0035
ENCODING 53
SWIDTH 583 0
DWIDTH 49 0
BBX 43 56 1 0
BITMAP
007FFFFFFF80
03FFFFFFFF80
07FFFFFFFF80
0FFFFFFFFF80
1FFFFFFFFF80
3FC000000000
7F0000000000
7E0000000000
FC0000000000
FC0000000000
F80000000000
F80000000000
F80000000000
F80000000000
F80000000000
F80000000000
F80000000000
FC0000000000
FC0000000000
7C0000000000
7E0000000000
7F0000000000
3FFFFFFE0000
1FFFFFFFF000
0FFFFFFFFC00
07FFFFFFFE00
01FFFFFFFF00
007FFFFFFF80
000000003F80
000000001FC0
000000000FC0
0000000007E0
0000000007E0
0000000003E0
0000000003E0
0000000003E0
0000000003E0
0000000003E0
0000000003E0
0000000003E0
0000000003E0
F800000003E0
F800000003E0
F800000003E0
F800000003E0
F800000007E0
FC00000007E0
FC00000007C0
7E0000000FC0
7F0000001FC0
3FE00000FF80
1FFFFFFFFF00
0FFFFFFFFE00
07FFFFFFFC00
03FFFFFFF800
007FFFFFC000
ENDCHAR
STARTCHAR 0036
ENCODING 54
SWIDTH 583 0
DWIDTH 49 0
BBX 43 56 1 0
BITMAP
007FFFFFFE00
03FFFFFFFE00
07FFFFFFFE00
0FFFFFFFFE00
1FFFFFFFFE00
3FC000000000
7F0000000000
7E0000000000
7C0000000000
FC0000000000
F80000000000
F80000000000
F80000000000
F80000000000
F80000000000
F80000000000
F80000000000
F80000000000
F80000000000
F8FFFFFFE000
FBFFFFFFF800
FFFFFFFFFE00
FFFFFFFFFF00
FFFFFFFFFF00
FF8000007F80
FF0000001FC0
FE0000000FC0
FC00000007C0
FC00000007E0
F800000007E0
F800000003E0
F800000003E0
F800000003E0
F800000003E0
F800000003E0
F800000003E0
F800000003E0
F800000003E0
F800000003E0
F800000003E0
F800000003E0
F800000003E0
F800000003E0
F800000003E0
F800000003E0
F800000007E0
FC00000007E0
FC00000007C0
7E0000000FC0
7F0000001FC0
3FE00000FF80
1FFFFFFFFF00
0FFFFFFFFE00
07FFFFFFFC00
03FFFFFFF800
007FFFFFC000
ENDCHAR
STARTCHAR 0037
ENCODING 55
SWIDTH 619 0
DWIDTH 52 0
BBX 47 56 0 0
BITMAP
0FFFFFFFFC00
0FFFFFFFFF80
0FFFFFFFFFC0
0FFFFFFFFFE0
0FFFFFFFFFF0
0000000007F8
0000000001F8
0000000000FC
00000000007C
00000000007E
00000000007E
00000000007E
00000000007E
00000000007E
00000000007E
00000000007C
0000000000FC
0000000001F8
0000000003F8
0000000007F0
000000000FE0
000000001FC0
000000003F80
000000007F00
00000000FE00
00000001FC00
00000003F800
00000007F000
0000000FE000
0000001FC000
0000003F8000
0000007F0000
000000FE0000
000001FC0000
000003F80000
000007F00000
00000FE00000
00001FC00000
00003F800000
00007F000000
0000FE000000
0001FC000000
0003F8000000
0007F0000000
000FE0000000
001FC0000000
003F80000000
007F00000000
00FE00000000
01FC00000000
03F800000000
07F000000000
0FE000000000
1FC000000000
3F8000000000
FF0000000000
ENDCHAR
STARTCHAR 0038
ENCODING 56
SWIDTH 583 0
DWIDTH 49 0
BBX 43 56 1 0
BITMAP
007FFFFFC000
03FFFFFFF800
07FFFFFFFC00
0FFFFFFFFE00
1FFFFFFFFF00
3FC000007F80
7F0000001FC0
7E0000000FC0
7C00000007C0
FC00000007E0
F800000007E0
F800000003E0
F800000003E0
F800000003E0
F800000003E0
F800000003E0
F800000003E0
FC00000007E0
FC00000007E0
7C0000000FC0
7E0000000FC0
7F0000003FC0
3FFFFFFFFF80
1FFFFFFFFF00
0FFFFFFFFE00
0FFFFFFFFE00
1FFFFFFFFF00
3FFFFFFFFF80
3F8000003F80
7F0000001FC0
7E0000000FC0
FC00000007E0
FC00000007E0
F800000003E0
F800000003E0
F800000003E0
F800000003E0
F800000003E0
F800000003E0
F800000003E0
F800000003E0
F800000003E0
F800000003E0
F800000003E0
F800000003E0
F800000007E0
FC00000007E0
FC00000007C0
7E0000000FC0
7F0000001FC0
3FE00000FF80
1FFFFFFFFF00
0FFFFFFFFE00
07FFFFFFFC00
03FFFFFFF800
007FFFFFC000
ENDCHAR
STARTCHAR 0039
ENCODING 57
SWIDTH 583 0
DWIDTH 49 0
BBX 43 56 1 0
BITMAP
007FFFFFC000
03FFFFFFF800
07FFFFFFFC00
0FFFFFFFFE00
1FFFFFFFFF00
3FC000007F80
7F0000001FC0
7E0000000FC0
7C00000007C0
FC00000007E0
F800000007E0
F800000003E0
F800000003E0
F800000003E0
F800000003E0
F800000003E0
F800000003E0
F800000003E0
F800000003E0
F800000003E0
F800000003E0
F800000003E0
F800000003E0
F800000003E0
F800000003E0
F800000003E0
F800000003E0
FC00000007E0
FC00000007E0
7E0000000FE0
7F0000001FE0
3FC000007FE0
3FFFFFFFFFE0
1FFFFFFFFFE0
0FFFFFFFFFE0
03FFFFFFFBE0
00FFFFFFE3E0
0000000003E0
0000000003E0
0000000003E0
0000000003E0
0000000003E0
0000000003E0
0000000003E0
0000000003E0
0000000007E0
0000000007E0
0000000007C0
000000000FC0
000000001FC0
00000000FF80
0FFFFFFFFF00
0FFFFFFFFE00
0FFFFFFFFC00
0FFFFFFFF800
0FFFFFFFC000
ENDCHAR
STARTCHAR 003A
ENCODING 58
SWIDTH 142 0
DWIDTH 12 0
BBX 5 37 1 -5
BITMAP
F8
F8
F8
F8
F8
F8
00
00
00
00
00
00
00
00
00
00
00
00
00
00
00
00
00
00
00
00
00
F8
F8
F8
F8
F8
F8
F8
F8
F8
F8
ENDCHAR
STARTCHAR 003B
ENCODING 59
SWIDTH 142 0
DWIDTH 12 0
BBX 5 32 1 0
BITMAP
F8
F8
F8
F8
F8
F8
00
00
00
00
00
00
00
00
00
00
00
00
00
00
00
00
00
00
00
00
00
F8
F8
F8
F8
F8
ENDCHAR
STARTCHAR 003C
ENCODING 60
SWIDTH 666 0
DWIDTH 56 0
BBX 0 0 0 0
BITMAP
ENDCHAR
STARTCHAR 003E
ENCODING 62
SWIDTH 666 0
DWIDTH 56 0
BBX 0 0 0 0
BITMAP
ENDCHAR
STARTCHAR 003F
ENCODING 63
SWIDTH 583 0
DWIDTH 49 0
BBX 43 56 1 0
BITMAP
007FFFFFC000
03FFFFFFF800
07FFFFFFFC00
0FFFFFFFFE00
1FFFFFFFFF00
3FC000007F80
7F0000001FC0
7E0000000FC0
FC00000007C0
FC00000007E0
F800000007E0
F800000003E0
F800000003E0
F800000003E0
F800000003E0
0000000007E0
0000000007E0
0000000007C0
000000000FC0
000000001FC0
000000007F80
00000001FF00
00000003FE00
0000000FFC00
0000001FF800
0000007FE000
000001FF8000
000003FF0000
00000FFC0000
00001FF80000
00007FE00000
0000FFC00000
0003FF000000
0007FC000000
000FF8000000
001FE0000000
001FC0000000
003F00000000
003F00000000
003E00000000
007E00000000
007E00000000
007E00000000
007E00000000
007E00000000
000000000000
000000000000
000000000000
000000000000
000000000000
000000000000
007E00000000
007E00000000
007E00000000
007E00000000
007E00000000
ENDCHAR
STARTCHAR 0040
ENCODING 64
SWIDTH 630 0
DWIDTH 53 0
BBX 47 56 1 0
BITMAP
007FFFFFFC00
03FFFFFFFF00
07FFFFFFFFC0
0FFFFFFFFFE0
1FFFFFFFFFF0
3FC0000007F8
7F00000001F8
7E00000000FC
7C00000000FC
FC000000007C
F8000000007E
F8000000007E
F8000000007E
F801FFFF007E
F803FFFF807E
F807FFFFC07E
F80FFFFFE07E
F80FFFFFE07E
F81F8003E07E
F81F8003E07E
F81F8003E07E
F81F8003E07E
F81F8003E07E
F81F8003E07E
F81F8003E07E
F81F8003E07E
F81FF003E07E
F81FFC03E07E
F81FFE01E07E
F81FFF00E07E
F81FFF80607E
F81FFFC0207E
F81F9FE0007E
F81F8FF0007E
F81F87F8007E
F81F83FC007E
F81F81FE007E
F81F80FF007E
F81F807FFFFC
F81F803FFFFC
F81F801FFFF8
F81F800FFFF0
F81F8003FFE0
F80000000000
F80000000000
F80000000000
FC0000000000
FC0000000000
7E0000000000
7F0000000000
3FE000000000
1FFE00000000
0FFE00000000
07FE00000000
03FE00000000
007E00000000
ENDCHAR
STARTCHAR 0041
ENCODING 65
SWIDTH 583 0
DWIDTH 49 0
BBX 43 57 1 -1
BITMAP
007FFFFFC000
03FFFFFFF800
07FFFFFFFC00
0FFFFFFFFE00
1FFFFFFFFF00
3FC000007F80
7F0000001FC0
7E0000000FC0
FC00000007C0
FC00000007E0
F800000007E0
F800000003E0
F800000003E0
F800000003E0
F800000003E0
F800000003E0
F800000003E0
F800000003E0
F800000003E0
F800000003E0
F800000003E0
F800000003E0
F800000003E0
F800000003E0
F800000003E0
F800000003E0
F800000003E0
FFF8000003E0
FFFF000003E0
FFFF800003E0
FFFFE00003E0
FFFFE00003E0
F81FF00003E0
F803F80003E0
F801FC0003E0
F800FE0003E0
F8007F0003E0
F8003F8003E0
F8001FC003E0
F8000FE003E0
F80007F003E0
F80003F803E0
F80001FC03E0
F80000FE03E0
F80000FF03E0
F800007F83E0
F800003FC3E0
F800001FE3E0
F800000FF3E0
F8000007FBE0
F8000003FFE0
F8000001FFE0
F8000000FFE0
F80000007FE0
F80000003FC0
F80000001FC0
000000000F00
ENDCHAR
STARTCHAR 0042
ENCODING 66
SWIDTH 583 0
DWIDTH 49 0
BBX 43 56 1 0
BITMAP
007FFFFFC000
03FFFFFFF800
07FFFFFFFC00
0FFFFFFFFE00
1FFFFFFFFF00
3FC000007F80
7F0000001FC0
7E0000000FC0
7C00000007C0
FC00000007E0
F800000007E0
F800000003E0
F800000003E0
F800000003E0
F800000003E0
F800000003E0
F800000003E0
F800000003E0
F800000003E0
F800000007E0
F800000007E0
F80000000FC0
F80000000FC0
F80000003F80
FFFFFFFFFF80
FFFFFFFFFF00
FFFFFFFFFE00
FFFFFFFFFE00
FFFFFFFFFF00
FFFFFFFFFF80
F80000003F80
F80000001FC0
F80000000FC0
F800000007E0
F800000007E0
F800000003E0
F800000003E0
F800000003E0
F800000003E0
F800000003E0
F800000003E0
F800000003E0
F800000003E0
F800000003E0
F800000003E0
F800000007E0
F800000007E0
F800000007C0
F80000000FC0
F80000001FC0
F8000000FF80
FFFFFFFFFF00
FFFFFFFFFE00
FFFFFFFFFC00
FFFFFFFFF800
FFFFFFFFC000
ENDCHAR
STARTCHAR 0043
ENCODING 67
SWIDTH 547 0
DWIDTH 46 0
BBX 39 56 1 0
BITMAP
007FFFFFFE
03FFFFFFFE
07FFFFFFFE
0FFFFFFFFE
1FFFFFFFFE
3FC0000000
7F00000000
7E00000000
7C00000000
FC00000000
F800000000
F800000000
F800000000
F800000000
F800000000
F800000000
F800000000
F800000000
F800000000
F800000000
F800000000
F800000000
F800000000
F800000000
F800000000
F800000000
F800000000
F800000000
F800000000
F800000000
F800000000
F800000000
F800000000
F800000000
F800000000
F800000000
F800000000
F800000000
F800000000
F800000000
F800000000
F800000000
F800000000
F800000000
F800000000
F800000000
FC00000000
FC00000000
7E00000000
7F00000000
3FE0000000
1FFFFFFFFE
0FFFFFFFFE
07FFFFFFFE
03FFFFFFFE
007FFFFFFE
ENDCHAR
STARTCHAR 0044
ENCODING 68
SWIDTH 583 0
DWIDTH 49 0
BBX 43 56 1 0
BITMAP
FFFFFFFFC000
FFFFFFFFF800
FFFFFFFFFC00
FFFFFFFFFE00
FFFFFFFFFF00
F80000007F80
F80000001FC0
F80000000FC0
F800000007C0
F800000007E0
F800000007E0
F800000003E0
F800000003E0
F800000003E0
F800000003E0
F800000003E0
F800000003E0
F800000003E0
F800000003E0
F800000003E0
F800000003E0
F800000003E0
F800000003E0
F800000003E0
F800000003E0
F800000003E0
F800000003E0
F800000003E0
F800000003E0
F800000003E0
F800000003E0
F800000003E0
F800000003E0
F800000003E0
F800000003E0
F800000003E0
F800000003E0
F800000003E0
F800000003E0
F800000003E0
F800000003E0
F800000003E0
F800000003E0
F800000003E0
F800000003E0
F800000007E0
F800000007E0
F800000007C0
F80000000FC0
F80000001FC0
F8000000FF80
FFFFFFFFFF00
FFFFFFFFFE00
FFFFFFFFFC00
FFFFFFFFF800
FFFFFFFFC000
ENDCHAR
STARTCHAR 0045
ENCODING 69
SWIDTH 535 0
DWIDTH 45 0
BBX 39 56 1 0
BITMAP
007FFFFFFE
03FFFFFFFE
07FFFFFFFE
0FFFFFFFFE
1FFFFFFFFE
3FC0000000
7F00000000
7E00000000
7C00000000
FC00000000
F800000000
F800000000
F800000000
F800000000
F800000000
F800000000
F800000000
F800000000
F800000000
F800000000
F800000000
F800000000
F800000000
F800000000
FFFFFFFFFE
FFFFFFFFFE
FFFFFFFFFE
FFFFFFFFFE
FFFFFFFFFE
FFFFFFFFFE
F800000000
F800000000
F800000000
F800000000
F800000000
F800000000
F800000000
F800000000
F800000000
F800000000
F800000000
F800000000
F800000000
F800000000
F800000000
F800000000
FC00000000
FC00000000
7E00000000
7F00000000
3FE0000000
1FFFFFFFFE
0FFFFFFFFE
07FFFFFFFE
03FFFFFFFE
007FFFFFFE
ENDCHAR
STARTCHAR 0046
ENCODING 70
SWIDTH 547 0
DWIDTH 46 0
BBX 39 56 1 0
BITMAP
007FFFFFFE
03FFFFFFFE
07FFFFFFFE
0FFFFFFFFE
1FFFFFFFFE
3FC0000000
7F00000000
7E00000000
7C00000000
FC00000000
F800000000
F800000000
F800000000
F800000000
F800000000
F800000000
F800000000
F800000000
F800000000
F800000000
F800000000
F800000000
F800000000
F800000000
FFFFFFFFFE
FFFFFFFFFE
FFFFFFFFFE
FFFFFFFFFE
FFFFFFFFFE
FFFFFFFFFE
F800000000
F800000000
F800000000
F800000000
F800000000
F800000000
F800000000
F800000000
F800000000
F800000000
F800000000
F800000000
F800000000
F800000000
F800000000
F800000000
F800000000
F800000000
F800000000
F800000000
F800000000
F800000000
F800000000
F800000000
F800000000
F800000000
ENDCHAR
STARTCHAR 0047
ENCODING 71
SWIDTH 583 0
DWIDTH 49 0
BBX 43 56 1 0
BITMAP
007FFFFFFE00
03FFFFFFFE00
07FFFFFFFE00
0FFFFFFFFE00
1FFFFFFFFE00
3FC000000000
7F0000000000
7E0000000000
7C0000000000
FC0000000000
F80000000000
F80000000000
F80000000000
F80000000000
F80000000000
F80000000000
F80000000000
F80000000000
F80000000000
F80000000000
F80000000000
F80000000000
F80000000000
F80000000000
FFFFFFFF8000
FFFFFFFFF000
FFFFFFFFFC00
FFFFFFFFFE00
FFFFFFFFFF00
FFFFFFFFFF80
F80000003F80
F80000001FC0
F80000000FC0
F800000007E0
F800000007E0
F800000003E0
F800000003E0
F800000003E0
F800000003E0
F800000003E0
F800000003E0
F800000003E0
F800000003E0
F800000003E0
F800000003E0
F800000007E0
FC00000007E0
FC00000007C0
7E0000000FC0
7F0000001FC0
3FE00000FF80
1FFFFFFFFF00
0FFFFFFFFE00
07FFFFFFFC00
03FFFFFFF800
007FFFFFC000
ENDCHAR
STARTCHAR 0048
ENCODING 72
SWIDTH 583 0
DWIDTH 49 0
BBX 43 56 1 0
BITMAP
F800000003E0
F800000003E0
F800000003E0
F800000003E0
F800000003E0
F800000003E0
F800000003E0
F800000003E0
F800000003E0
F800000003E0
F800000003E0
F800000003E0
F800000003E0
F800000003E0
F800000003E0
F800000003E0
F800000003E0
F800000003E0
F800000003E0
F800000003E0
F800000003E0
F800000003E0
F800000003E0
F800000003E0
FFFFFFFFFFE0
FFFFFFFFFFE0
FFFFFFFFFFE0
FFFFFFFFFFE0
FFFFFFFFFFE0
FFFFFFFFFFE0
F800000003E0
F800000003E0
F800000003E0
F800000003E0
F800000003E0
F800000003E0
F800000003E0
F800000003E0
F800000003E0
F800000003E0
F800000003E0
F800000003E0
F800000003E0
F800000003E0
F800000003E0
F800000003E0
F800000003E0
F800000003E0
F800000003E0
F800000003E0
F800000003E0
F800000003E0
F800000003E0
F800000003E0
F800000003E0
F800000003E0
ENDCHAR
STARTCHAR 0049
ENCODING 73
SWIDTH 142 0
DWIDTH 12 0
BBX 5 56 1 0
BITMAP
F8
F8
F8
F8
F8
F8
F8
F8
F8
F8
F8
F8
F8
F8
F8
F8
F8
F8
F8
F8
F8
F8
F8
F8
F8
F8
F8
F8
F8
F8
F8
F8
F8
F8
F8
F8
F8
F8
F8
F8
F8
F8
F8
F8
F8
F8
F8
F8
F8
F8
F8
F8
F8
F8
F8
F8
ENDCHAR
STARTCHAR 004A
ENCODING 74
SWIDTH 535 0
DWIDTH 45 0
BBX 39 56 0 0
BITMAP
000000003E
000000003E
000000003E
000000003E
000000003E
000000003E
000000003E
000000003E
000000003E
000000003E
000000003E
000000003E
000000003E
000000003E
000000003E
000000003E
000000003E
000000003E
000000003E
000000003E
000000003E
000000003E
000000003E
000000003E
000000003E
000000003E
000000003E
000000003E
000000003E
000000003E
000000003E
000000003E
000000003E
000000003E
000000003E
000000003E
000000003E
000000003E
000000003E
000000003E
000000003E
000000003E
000000003E
000000003E
000000003E
000000003E
000000007E
000000007E
00000000FC
00000001FC
0000000FF8
FFFFFFFFF0
FFFFFFFFF0
FFFFFFFFC0
FFFFFFFF80
FFFFFFFE00
ENDCHAR
STARTCHAR 004B
ENCODING 75
SWIDTH 595 0
DWIDTH 50 0
BBX 44 56 1 0
BITMAP
F800000007C0
F80000000FC0
F80000001FC0
F80000003FC0
F80000007FC0
F8000000FE00
F8000001FC00
F8000003F800
F8000007F000
F800000FE000
F800001FC000
F800003F8000
F800007F0000
F80000FE0000
F80001FC0000
F80003F80000
F80007F00000
F8000FE00000
F8001FC00000
F8003F800000
F8007F000000
F800FE000000
F801FC000000
F807F8000000
FFFFF0000000
FFFFE0000000
FFFFC0000000
FFFFC0000000
FFFFE0000000
FFFFF0000000
F807F8000000
F801FC000000
F800FE000000
F8007F000000
F8003F800000
F8001FC00000
F8000FE00000
F80007F00000
F80003F80000
F80001FC0000
F80000FE0000
F800007F0000
F800003F8000
F800001FC000
F800000FE000
F8000007F000
F8000003F800
F8000001FC00
F8000000FE00
F80000007F00
F80000003F80
F80000001FF0
F80000000FF0
F800000007F0
F800000003F0
F800000001F0
ENDCHAR
STARTCHAR 004C
ENCODING 76
SWIDTH 535 0
DWIDTH 45 0
BBX 39 57 1 0
BITMAP
F800000000
F800000000
F800000000
F800000000
F800000000
F800000000
F800000000
F800000000
F800000000
F800000000
F800000000
F800000000
F800000000
F800000000
F800000000
F800000000
F800000000
F800000000
F800000000
F800000000
F800000000
F800000000
F800000000
F800000000
F800000000
F800000000
F800000000
F800000000
F800000000
F800000000
F800000000
F800000000
F800000000
F800000000
F800000000
F800000000
F800000000
F800000000
F800000000
F800000000
F800000000
F800000000
F800000000
F800000000
F800000000
F800000000
F800000000
FC00000000
7C00000000
7E00000000
7F00000000
3FC0000000
1FFFFFFFFE
0FFFFFFFFE
07FFFFFFFE
03FFFFFFFE
007FFFFFFE
ENDCHAR
STARTCHAR 004D
ENCODING 77
SWIDTH 1035 0
DWIDTH 87 0
BBX 81 56 1 0
BITMAP
007FFFFFC003FFFFFF0000
03FFFFFFF80FFFFFFFC000
07FFFFFFFC3FFFFFFFF000
0FFFFFFFFE7FFFFFFFF800
1FFFFFFFFFFFFFFFFFFC00
3FC000007FFF000003FE00
7F0000001FFC000000FE00
7E0000000FF80000003F00
7C00000007F00000003F00
FC00000007E00000001F00
F800000007E00000001F00
F800000003E00000001F80
F800000003E00000001F80
F800000003E00000001F80
F800000003E00000001F80
F800000003E00000001F80
F800000003E00000001F80
F800000003E00000001F80
F800000003E00000001F80
F800000003E00000001F80
F800000003E00000001F80
F800000003E00000001F80
F800000003E00000001F80
F800000003E00000001F80
F800000003E00000001F80
F800000003E00000001F80
F800000003E00000001F80
F800000003E00000001F80
F800000003E00000001F80
F800000003E00000001F80
F800000003E00000001F80
F800000003E00000001F80
F800000003E00000001F80
F800000003E00000001F80
F800000003E00000001F80
F800000003E00000001F80
F800000003E00000001F80
F800000003E00000001F80
F800000003E00000001F80
F800000003E00000001F80
F800000003E00000001F80
F800000003E00000001F80
F800000003E00000001F80
F800000003E00000001F80
F800000003E00000001F80
F800000003E00000001F80
F800000003E00000001F80
F800000003E00000001F80
F800000003E00000001F80
F800000003E00000001F80
F800000003E00000001F80
F800000003E00000001F80
F800000003E00000001F80
F800000003E00000001F80
F800000003E00000001F80
F800000003E00000001F80
ENDCHAR
STARTCHAR 004E
ENCODING 78
SWIDTH 654 0
DWIDTH 55 0
BBX 49 56 1 0
BITMAP
007FE000001F80
03FFFC00001F80
07FFFE00001F80
0FFFFF00001F80
1FFFFF80001F80
3FC03FC0001F80
7F000FE0001F80
7E0007F0001F80
7C0003F8001F80
FC0001FC001F80
F80000FE001F80
F800007F001F80
F800003F801F80
F800001FC01F80
F800000FE01F80
F8000007F01F80
F8000003F81F80
F8000001FC1F80
F8000000FE1F80
F80000007F1F80
F80000003F9F80
F80000001FDF80
F80000000FFF80
F800000007FF80
F800000003FF80
F800000001FF80
F800000000FF80
F8000000007F80
F8000000003F80
F8000000001F80
F8000000001F80
F8000000001F80
F8000000001F80
F8000000001F80
F8000000001F80
F8000000001F80
F8000000001F80
F8000000001F80
F8000000001F80
F8000000001F80
F8000000001F80
F8000000001F80
F8000000001F80
F8000000001F80
F8000000001F80
F8000000001F80
F8000000001F80
F8000000001F80
F8000000001F80
F8000000001F80
F8000000001F80
F8000000001F80
F8000000001F80
F8000000001F80
F8000000001F80
F8000000001F80
ENDCHAR
STARTCHAR 004F
ENCODING 79
SWIDTH 583 0
DWIDTH 49 0
BBX 43 56 1 0
BITMAP
007FFFFFC000
03FFFFFFF800
07FFFFFFFC00
0FFFFFFFFE00
1FFFFFFFFF00
3FC000007F80
7F0000001FC0
7E0000000FC0
7C00000007C0
FC00000007E0
F800000007E0
F800000003E0
F800000003E0
F800000003E0
F800000003E0
F800000003E0
F800000003E0
F800000003E0
F800000003E0
F800000003E0
F800000003E0
F800000003E0
F800000003E0
F800000003E0
F800000003E0
F800000003E0
F800000003E0
F800000003E0
F800000003E0
F800000003E0
F800000003E0
F800000003E0
F800000003E0
F800000003E0
F800000003E0
F800000003E0
F800000003E0
F800000003E0
F800000003E0
F800000003E0
F800000003E0
F800000003E0
F800000003E0
F800000003E0
F800000003E0
F800000007E0
FC00000007E0
FC00000007C0
7E0000000FC0
7F0000001FC0
3FE00000FF80
1FFFFFFFFF00
0FFFFFFFFE00
07FFFFFFFC00
03FFFFFFF800
007FFFFFC000
ENDCHAR
STARTCHAR 0050
ENCODING 80
SWIDTH 583 0
DWIDTH 49 0
BBX 43 56 1 0
BITMAP
007FFFFFC000
03FFFFFFF800
07FFFFFFFC00
0FFFFFFFFE00
1FFFFFFFFF00
3FC000007F80
7F0000001FC0
7E0000000FC0
7C00000007C0
FC00000007E0
F800000007E0
F800000003E0
F800000003E0
F800000003E0
F800000003E0
F800000003E0
F800000003E0
F800000003E0
F800000003E0
F800000003E0
F800000003E0
F800000003E0
F800000003E0
F800000003E0
F800000003E0
F800000003E0
F800000007E0
F800000007E0
F800000007C0
F80000000FC0
F80000001FC0
F80000007F80
FFFFFFFFFF00
FFFFFFFFFF00
FFFFFFFFFC00
FFFFFFFFF800
FFFFFFFFE000
F80000000000
F80000000000
F80000000000
F80000000000
F80000000000
F80000000000
F80000000000
F80000000000
F80000000000
F80000000000
F80000000000
F80000000000
F80000000000
F80000000000
F80000000000
F80000000000
F80000000000
F80000000000
F80000000000
ENDCHAR
STARTCHAR 0051
ENCODING 81
SWIDTH 583 0
DWIDTH 49 0
BBX 43 62 1 -6
BITMAP
007FFFFFC000
03FFFFFFF800
07FFFFFFFC00
0FFFFFFFFE00
1FFFFFFFFF00
3FC000007F80
7F0000001FC0
7E0000000FC0
7C00000007E0
FC00000007E0
FC00000003E0
F800000003E0
F800000003E0
F800000003E0
F800000003E0
F800000003E0
F800000003E0
F800000003E0
F800000003E0
F800000003E0
F800000003E0
F800000003E0
F800000003E0
F800000003E0
F800000003E0
F800000003E0
F800000003E0
F800000003E0
F800000003E0
F800000003E0
F800000003E0
F800000003E0
F800000003E0
F800000003E0
F800000003E0
F800000003E0
F800000003E0
F800000003E0
F800000003E0
F800000003E0
F800000003E0
F800000003E0
F800000003E0
F800000003E0
F800000003E0
FC00000003E0
FC00000007E0
FC00000007E0
7E0000000FC0
7F0000001FC0
3FE00000FF80
1FFFE7FFFF00
0FFFFFFFFE00
07FFFFFFFC00
03FFFFFFF800
00FFFFFFC000
0003FE000000
0007F8000000
0007F0000000
0003E0000000
0001C0000000
000080000000
ENDCHAR
STARTCHAR 0052
ENCODING 82
SWIDTH 583 0
DWIDTH 49 0
BBX 43 56 1 0
BITMAP
007FFFFFC000
03FFFFFFF800
07FFFFFFFC00
0FFFFFFFFE00
1FFFFFFFFF00
3FC000007F80
7F0000001FC0
7E0000000FC0
7C00000007C0
FC00000007E0
F800000007E0
F800000003E0
F800000003E0
F800000003E0
F800000003E0
F800000003E0
F800000003E0
F800000003E0
F800000003E0
F800000007E0
F800000007E0
F80000000FC0
F80000000FC0
F80000003F80
FFFFFFFFFF80
FFFFFFFFFF00
FFFFFFFFFE00
FFFFFFFFFC00
FFFFFFFFF000
FFFFFFFF0000
F8001FF80000
F8000FFE0000
F80003FF0000
F80000FFC000
F800007FE000
F800001FF800
F800000FFE00
F8000003FF00
F8000000FF80
F80000007F80
F80000001FC0
F80000000FC0
F800000007E0
F800000007E0
F800000007E0
F800000003E0
F800000003E0
F800000003E0
F800000003E0
F800000003E0
F800000003E0
F800000003E0
F800000003E0
F800000003E0
F800000003E0
F800000003E0
ENDCHAR
STARTCHAR 0053
ENCODING 83
SWIDTH 583 0
DWIDTH 49 0
BBX 43 56 1 0
BITMAP
007FFFFFC000
03FFFFFFF800
07FFFFFFFC00
0FFFFFFFFE00
1FFFFFFFFF00
3FC000007F80
7F0000001FC0
7E0000000FC0
7C00000007C0
FC00000007E0
F800000007E0
F800000003E0
F800000003E0
F800000003E0
F800000003E0
F80000000000
FC0000000000
7C0000000000
7E0000000000
7F0000000000
3FC000000000
1FF800000000
0FFE00000000
07FFC0000000
03FFF0000000
00FFFC000000
001FFF800000
0007FFE00000
0000FFFC0000
00003FFF0000
00000FFFC000
000001FFF800
0000007FFC00
0000000FFE00
00000003FF00
000000007F80
000000001FC0
000000000FC0
0000000007C0
0000000007E0
0000000007E0
F800000003E0
F800000003E0
F800000003E0
F800000003E0
F800000007E0
FC00000007E0
FC00000007C0
7E0000000FC0
7F0000001FC0
3FE00000FF80
1FFFFFFFFF00
0FFFFFFFFE00
07FFFFFFFC00
03FFFFFFF800
007FFFFFC000
ENDCHAR
STARTCHAR 0054
ENCODING 84
SWIDTH 571 0
DWIDTH 48 0
BBX 43 56 0 0
BITMAP
FFFFFFFFFFE0
FFFFFFFFFFE0
FFFFFFFFFFE0
FFFFFFFFFFE0
FFFFFFFFFFE0
00001F000000
00001F000000
00001F000000
00001F000000
00001F000000
00001F000000
00001F000000
00001F000000
00001F000000
00001F000000
00001F000000
00001F000000
00001F000000
00001F000000
00001F000000
00001F000000
00001F000000
00001F000000
00001F000000
00001F000000
00001F000000
00001F000000
00001F000000
00001F000000
00001F000000
00001F000000
00001F000000
00001F000000
00001F000000
00001F000000
00001F000000
00001F000000
00001F000000
00001F000000
00001F000000
00001F000000
00001F000000
00001F000000
00001F000000
00001F000000
00001F000000
00001F000000
00001F000000
00001F000000
00001F000000
00001F000000
00001F000000
00001F000000
00001F000000
00001F000000
00001F000000
ENDCHAR
STARTCHAR 0055
ENCODING 85
SWIDTH 583 0
DWIDTH 49 0
BBX 43 56 1 0
BITMAP
F800000003E0
F800000003E0
F800000003E0
F800000003E0
F800000003E0
F800000003E0
F800000003E0
F800000003E0
F800000003E0
F800000003E0
F800000003E0
F800000003E0
F800000003E0
F800000003E0
F800000003E0
F800000003E0
F800000003E0
F800000003E0
F800000003E0
F800000003E0
F800000003E0
F800000003E0
F800000003E0
F800000003E0
F800000003E0
F800000003E0
F800000003E0
F800000003E0
F800000003E0
F800000003E0
F800000003E0
F800000003E0
F800000003E0
F800000003E0
F800000003E0
F800000003E0
F800000003E0
F800000003E0
F800000003E0
F800000003E0
F800000003E0
F800000003E0
F800000003E0
F800000003E0
F800000003E0
F800000007E0
FC00000007E0
FC00000007C0
7E0000000FC0
7F0000001FC0
3FE00000FF80
1FFFFFFFFF00
0FFFFFFFFE00
07FFFFFFFC00
03FFFFFFF800
007FFFFFC000
ENDCHAR
STARTCHAR 0056
ENCODING 86
SWIDTH 678 0
DWIDTH 57 0
BBX 50 57 1 -1
BITMAP
F80000000007C0
F80000000007C0
F80000000007C0
F80000000007C0
F80000000007C0
F80000000007C0
F80000000007C0
F80000000007C0
F80000000007C0
F80000000007C0
F80000000007C0
F80000000007C0
F80000000007C0
F80000000007C0
F80000000007C0
F80000000007C0
F80000000007C0
F80000000007C0
F80000000007C0
F80000000007C0
F80000000007C0
F80000000007C0
F80000000007C0
F80000000007C0
F80000000007C0
F80000000007C0
F80000000007C0
F80000000007C0
F80000000007C0
F80000000007C0
F80000000007C0
F80000000007C0
F80000000007C0
F80000000007C0
F80000000007C0
F80000000007C0
FC0000000007C0
FC0000000007C0
FC000000000FC0
7E000000001FC0
7F800000003F80
3FC0000000FF80
1FF0000001FF00
0FF8000007FE00
07FE00000FFC00
03FF00003FF000
00FFC0007FE000
007FE001FF8000
001FF803FF0000
000FFC0FFC0000
0003FF1FF00000
0001FFFFE00000
00007FFF800000
00003FFF000000
00000FFC000000
000003F8000000
000001E0000000
ENDCHAR
STARTCHAR 0057
ENCODING 87
SWIDTH 1214 0
DWIDTH 102 0
BBX 96 57 1 -1
BITMAP
F80000000007C0000000003F
F80000000007C0000000003F
F80000000007C0000000003F
F80000000007C0000000003F
F80000000007C0000000003F
F80000000007C0000000003F
F80000000007C0000000003F
F80000000007C0000000003F
F80000000007C0000000003F
F80000000007C0000000003F
F80000000007C0000000003F
F80000000007C0000000003F
F80000000007C0000000003F
F80000000007C0000000003F
F80000000007C0000000003F
F80000000007C0000000003F
F80000000007C0000000003F
F80000000007C0000000003F
F80000000007C0000000003F
F80000000007C0000000003F
F80000000007C0000000003F
F80000000007C0000000003F
F80000000007C0000000003F
F80000000007C0000000003F
F80000000007C0000000003F
F80000000007C0000000003F
F80000000007C0000000003F
F80000000007C0000000003F
F80000000007C0000000003F
F80000000007C0000000003F
F80000000007C0000000003F
F80000000007C0000000003F
F80000000007C0000000003F
F80000000007C0000000003F
F80000000007C0000000003F
F80000000007C0000000003E
FC0000000007E0000000003E
FC000000000FE0000000003E
7E000000000FF0000000007E
7E000000001FF800000000FE
7F800000003FFC00000001FC
3FC0000000FFFE00000007F8
1FF0000001FEFF8000000FF8
0FF8000007FC7FC000003FF0
07FE00000FF83FF000007FE0
03FF00003FF00FF80001FF80
00FFC000FFC007FE0003FF00
007FE001FF8001FF800FFC00
001FF807FE0000FFC01FF000
0007FC0FFC00003FF07FE000
0003FF3FF000001FF8FF8000
0000FFFFE0000007FFFF0000
00007FFF80000003FFFC0000
00001FFF00000000FFF80000
00000FFC000000007FE00000
000003F8000000001FC00000
000001E0000000000F000000
ENDCHAR
STARTCHAR 0058
ENCODING 88
SWIDTH 678 0
DWIDTH 57 0
BBX 50 56 1 0
BITMAP
F80000000007C0
F80000000007C0
F80000000007C0
F80000000007C0
F80000000007C0
F80000000007C0
F80000000007C0
F80000000007C0
FC0000000007C0
FC000000000FC0
7E000000000FC0
7F000000001F80
7F800000007F80
3FE0000000FF00
1FF0000003FE00
0FFC00000FFC00
03FF00001FF800
01FF80007FE000
007FE001FFC000
003FF803FF0000
000FFC0FFC0000
0003FF1FF80000
0001FFFFE00000
00007FFFC00000
00001FFF000000
00001FFE000000
00007FFF800000
0000FFFFE00000
0003FF3FF00000
0007FE0FFC0000
001FF807FE0000
007FE001FF8000
00FFC0007FE000
03FF00003FF000
07FE00000FFC00
1FF8000007FE00
3FE0000001FF00
3FC00000007F80
7F000000003F80
7E000000001FC0
FC000000000FC0
FC0000000007C0
F80000000007C0
F80000000007C0
F80000000007C0
F80000000007C0
F80000000007C0
F80000000007C0
F80000000007C0
F80000000007C0
F80000000007C0
F80000000007C0
F80000000007C0
F80000000007C0
F80000000007C0
F80000000007C0
ENDCHAR
STARTCHAR 0059
ENCODING 89
SWIDTH 583 0
DWIDTH 49 0
BBX 43 56 1 0
BITMAP
F800000003E0
F800000003E0
F800000003E0
F800000003E0
F800000003E0
F800000003E0
F800000003E0
F800000003E0
F800000003E0
F800000003E0
F800000003E0
F800000003E0
F800000003E0
F800000003E0
F800000003E0
F800000003E0
F800000003E0
F800000003E0
F800000003E0
F800000003E0
F800000003E0
F800000003E0
F800000003E0
F800000003E0
F800000003E0
F800000003E0
F800000003E0
FC00000003E0
FC00000003E0
7E00000003E0
7F00000003E0
3FC0000003E0
3FFFFFFFFFE0
1FFFFFFFFFE0
0FFFFFFFFFE0
03FFFFFFFFE0
00FFFFFFFFE0
0000000003E0
0000000003E0
0000000003E0
0000000003E0
0000000003E0
0000000003E0
0000000003E0
0000000003E0
0000000007E0
0000000007E0
0000000007C0
000000000FC0
000000001FC0
00000000FF80
0FFFFFFFFF00
0FFFFFFFFE00
0FFFFFFFFC00
0FFFFFFFF800
0FFFFFFFC000
ENDCHAR
STARTCHAR 005A
ENCODING 90
SWIDTH 583 0
DWIDTH 49 0
BBX 43 56 1 0
BITMAP
FFFFFFFFC000
FFFFFFFFF800
FFFFFFFFFC00
FFFFFFFFFE00
FFFFFFFFFF00
000000007F80
000000001FC0
000000000FC0
0000000007C0
0000000007E0
0000000007E0
0000000003E0
0000000003E0
0000000007E0
0000000007E0
0000000007E0
000000000FC0
000000001FC0
000000007F80
00000001FF80
00000007FF00
0000000FFC00
0000003FF800
000000FFE000
000003FF8000
00000FFE0000
00001FFC0000
00007FF00000
0001FFC00000
0007FF000000
001FFC000000
003FF8000000
00FFE0000000
03FF80000000
07FE00000000
1FF800000000
3FF000000000
3FC000000000
7F0000000000
7E0000000000
FC0000000000
FC0000000000
F80000000000
F80000000000
F80000000000
F80000000000
FC0000000000
FC0000000000
7E0000000000
7F0000000000
3FE000000000
1FFFFFFFFFE0
0FFFFFFFFFE0
07FFFFFFFFE0
03FFFFFFFFE0
007FFFFFFFE0
ENDCHAR
STARTCHAR 005B
ENCODING 91
SWIDTH 500 0
DWIDTH 42 0
BBX 0 0 0 0
BITMAP
ENDCHAR
STARTCHAR 005C
ENCODING 92
SWIDTH 357 0
DWIDTH 30 0
BBX 29 58 0 -1
BITMAP
08000000
7C000000
FC000000
7C000000
7E000000
3E000000
3F000000
1F000000
1F800000
0F800000
0F800000
0FC00000
07C00000
07E00000
03E00000
03F00000
01F00000
01F00000
01F80000
00F80000
00FC0000
007C0000
007E0000
003E0000
003E0000
003F0000
001F0000
001F8000
000F8000
000FC000
0007C000
0007E000
0003E000
0003E000
0003F000
0001F000
0001F800
0000F800
0000FC00
00007C00
00007C00
00007E00
00003E00
00003F00
00001F00
00001F80
00000F80
00000F80
00000FC0
000007C0
000007E0
000003E0
000003F0
000001F0
000001F0
000001F8
000000F0
000000C0
ENDCHAR
STARTCHAR 005D
ENCODING 93
SWIDTH 500 0
DWIDTH 42 0
BBX 0 0 0 0
BITMAP
ENDCHAR
STARTCHAR 005E
ENCODING 94
SWIDTH 666 0
DWIDTH 56 0
BBX 0 0 0 0
BITMAP
ENDCHAR
STARTCHAR 005F
ENCODING 95
SWIDTH 404 0
DWIDTH 34 0
BBX 27 5 1 0
BITMAP
FFFFFFE0
FFFFFFE0
FFFFFFE0
FFFFFFE0
FFFFFFE0
ENDCHAR
STARTCHAR 0060
ENCODING 96
SWIDTH 500 0
DWIDTH 42 0
BBX 0 0 0 0
BITMAP
ENDCHAR
STARTCHAR 0061
ENCODING 97
SWIDTH 583 0
DWIDTH 49 0
BBX 43 57 1 -1
BITMAP
007FFFFFC000
03FFFFFFF800
07FFFFFFFC00
0FFFFFFFFE00
1FFFFFFFFF00
3FC000007F80
7F0000001FC0
7E0000000FC0
FC00000007C0
FC00000007E0
F800000007E0
F800000003E0
F800000003E0
F800000003E0
F800000003E0
F800000003E0
F800000003E0
F800000003E0
F800000003E0
F800000003E0
F800000003E0
F800000003E0
F800000003E0
F800000003E0
F800000003E0
F800000003E0
F800000003E0
FFF8000003E0
FFFF000003E0
FFFF800003E0
FFFFE00003E0
FFFFE00003E0
F81FF00003E0
F803F80003E0
F801FC0003E0
F800FE0003E0
F8007F0003E0
F8003F8003E0
F8001FC003E0
F8000FE003E0
F80007F003E0
F80003F803E0
F80001FC03E0
F80000FE03E0
F80000FF03E0
F800007F83E0
F800003FC3E0
F800001FE3E0
F800000FF3E0
F8000007FBE0
F8000003FFE0
F8000001FFE0
F8000000FFE0
F80000007FE0
F80000003FC0
F80000001FC0
000000000F00
ENDCHAR
STARTCHAR 0062
ENCODING 98
SWIDTH 583 0
DWIDTH 49 0
BBX 43 56 1 0
BITMAP
007FFFFFC000
03FFFFFFF800
07FFFFFFFC00
0FFFFFFFFE00
1FFFFFFFFF00
3FC000007F80
7F0000001FC0
7E0000000FC0
7C00000007C0
FC00000007E0
F800000007E0
F800000003E0
F800000003E0
F800000003E0
F800000003E0
F800000003E0
F800000003E0
F800000003E0
F800000003E0
F800000007E0
F800000007E0
F80000000FC0
F80000000FC0
F80000003F80
FFFFFFFFFF80
FFFFFFFFFF00
FFFFFFFFFE00
FFFFFFFFFE00
FFFFFFFFFF00
FFFFFFFFFF80
F80000003F80
F80000001FC0
F80000000FC0
F800000007E0
F800000007E0
F800000003E0
F800000003E0
F800000003E0
F800000003E0
F800000003E0
F800000003E0
F800000003E0
F800000003E0
F800000003E0
F800000003E0
F800000007E0
F800000007E0
F800000007C0
F80000000FC0
F80000001FC0
F8000000FF80
FFFFFFFFFF00
FFFFFFFFFE00
FFFFFFFFFC00
FFFFFFFFF800
FFFFFFFFC000
ENDCHAR
STARTCHAR 0063
ENCODING 99
SWIDTH 547 0
DWIDTH 46 0
BBX 39 56 1 0
BITMAP
007FFFFFFE
03FFFFFFFE
07FFFFFFFE
0FFFFFFFFE
1FFFFFFFFE
3FC0000000
7F00000000
7E00000000
7C00000000
FC00000000
F800000000
F800000000
F800000000
F800000000
F800000000
F800000000
F800000000
F800000000
F800000000
F800000000
F800000000
F800000000
F800000000
F800000000
F800000000
F800000000
F800000000
F800000000
F800000000
F800000000
F800000000
F800000000
F800000000
F800000000
F800000000
F800000000
F800000000
F800000000
F800000000
F800000000
F800000000
F800000000
F800000000
F800000000
F800000000
F800000000
FC00000000
FC00000000
7E00000000
7F00000000
3FE0000000
1FFFFFFFFE
0FFFFFFFFE
07FFFFFFFE
03FFFFFFFE
007FFFFFFE
ENDCHAR
STARTCHAR 0064
ENCODING 100
SWIDTH 583 0
DWIDTH 49 0
BBX 43 56 1 0
BITMAP
FFFFFFFFC000
FFFFFFFFF800
FFFFFFFFFC00
FFFFFFFFFE00
FFFFFFFFFF00
F80000007F80
F80000001FC0
F80000000FC0
F800000007C0
F800000007E0
F800000007E0
F800000003E0
F800000003E0
F800000003E0
F800000003E0
F800000003E0
F800000003E0
F800000003E0
F800000003E0
F800000003E0
F800000003E0
F800000003E0
F800000003E0
F800000003E0
F800000003E0
F800000003E0
F800000003E0
F800000003E0
F800000003E0
F800000003E0
F800000003E0
F800000003E0
F800000003E0
F800000003E0
F800000003E0
F800000003E0
F800000003E0
F800000003E0
F800000003E0
F800000003E0
F800000003E0
F800000003E0
F800000003E0
F800000003E0
F800000003E0
F800000007E0
F800000007E0
F800000007C0
F80000000FC0
F80000001FC0
F8000000FF80
FFFFFFFFFF00
FFFFFFFFFE00
FFFFFFFFFC00
FFFFFFFFF800
FFFFFFFFC000
ENDCHAR
STARTCHAR 0065
ENCODING 101
SWIDTH 535 0
DWIDTH 45 0
BBX 39 56 1 0
BITMAP
007FFFFFFE
03FFFFFFFE
07FFFFFFFE
0FFFFFFFFE
1FFFFFFFFE
3FC0000000
7F00000000
7E00000000
7C00000000
FC00000000
F800000000
F800000000
F800000000
F800000000
F800000000
F800000000
F800000000
F800000000
F800000000
F800000000
F800000000
F800000000
F800000000
F800000000
FFFFFFFFFE
FFFFFFFFFE
FFFFFFFFFE
FFFFFFFFFE
FFFFFFFFFE
FFFFFFFFFE
F800000000
F800000000
F800000000
F800000000
F800000000
F800000000
F800000000
F800000000
F800000000
F800000000
F800000000
F800000000
F800000000
F800000000
F800000000
F800000000
FC00000000
FC00000000
7E00000000
7F00000000
3FE0000000
1FFFFFFFFE
0FFFFFFFFE
07FFFFFFFE
03FFFFFFFE
007FFFFFFE
ENDCHAR
STARTCHAR 0066
ENCODING 102
SWIDTH 547 0
DWIDTH 46 0
BBX 39 56 1 0
BITMAP
007FFFFFFE
03FFFFFFFE
07FFFFFFFE
0FFFFFFFFE
1FFFFFFFFE
3FC0000000
7F00000000
7E00000000
7C00000000
FC00000000
F800000000
F800000000
F800000000
F800000000
F800000000
F800000000
F800000000
F800000000
F800000000
F800000000
F800000000
F800000000
F800000000
F800000000
FFFFFFFFFE
FFFFFFFFFE
FFFFFFFFFE
FFFFFFFFFE
FFFFFFFFFE
FFFFFFFFFE
F800000000
F800000000
F800000000
F800000000
F800000000
F800000000
F800000000
F800000000
F800000000
F800000000
F800000000
F800000000
F800000000
F800000000
F800000000
F800000000
F800000000
F800000000
F800000000
F800000000
F800000000
F800000000
F800000000
F800000000
F800000000
F800000000
ENDCHAR
STARTCHAR 0067
ENCODING 103
SWIDTH 583 0
DWIDTH 49 0
BBX 43 56 1 0
BITMAP
007FFFFFFE00
03FFFFFFFE00
07FFFFFFFE00
0FFFFFFFFE00
1FFFFFFFFE00
3FC000000000
7F0000000000
7E0000000000
7C0000000000
FC0000000000
F80000000000
F80000000000
F80000000000
F80000000000
F80000000000
F80000000000
F80000000000
F80000000000
F80000000000
F80000000000
F80000000000
F80000000000
F80000000000
F80000000000
FFFFFFFF8000
FFFFFFFFF000
FFFFFFFFFC00
FFFFFFFFFE00
FFFFFFFFFF00
FFFFFFFFFF80
F80000003F80
F80000001FC0
F80000000FC0
F800000007E0
F800000007E0
F800000003E0
F800000003E0
F800000003E0
F800000003E0
F800000003E0
F800000003E0
F800000003E0
F800000003E0
F800000003E0
F800000003E0
F800000007E0
FC00000007E0
FC00000007C0
7E0000000FC0
7F0000001FC0
3FE00000FF80
1FFFFFFFFF00
0FFFFFFFFE00
07FFFFFFFC00
03FFFFFFF800
007FFFFFC000
ENDCHAR
STARTCHAR 0068
ENCODING 104
SWIDTH 583 0
DWIDTH 49 0
BBX 43 56 1 0
BITMAP
F800000003E0
F800000003E0
F800000003E0
F800000003E0
F800000003E0
F800000003E0
F800000003E0
F800000003E0
F800000003E0
F800000003E0
F800000003E0
F800000003E0
F800000003E0
F800000003E0
F800000003E0
F800000003E0
F800000003E0
F800000003E0
F800000003E0
F800000003E0
F800000003E0
F800000003E0
F800000003E0
F800000003E0
FFFFFFFFFFE0
FFFFFFFFFFE0
FFFFFFFFFFE0
FFFFFFFFFFE0
FFFFFFFFFFE0
FFFFFFFFFFE0
F800000003E0
F800000003E0
F800000003E0
F800000003E0
F800000003E0
F800000003E0
F800000003E0
F800000003E0
F800000003E0
F800000003E0
F800000003E0
F800000003E0
F800000003E0
F800000003E0
F800000003E0
F800000003E0
F800000003E0
F800000003E0
F800000003E0
F800000003E0
F800000003E0
F800000003E0
F800000003E0
F800000003E0
F800000003E0
F800000003E0
ENDCHAR
STARTCHAR 0069
ENCODING 105
SWIDTH 142 0
DWIDTH 12 0
BBX 5 56 1 0
BITMAP
F8
F8
F8
F8
F8
F8
F8
F8
F8
F8
F8
F8
F8
F8
F8
F8
F8
F8
F8
F8
F8
F8
F8
F8
F8
F8
F8
F8
F8
F8
F8
F8
F8
F8
F8
F8
F8
F8
F8
F8
F8
F8
F8
F8
F8
F8
F8
F8
F8
F8
F8
F8
F8
F8
F8
F8
ENDCHAR
STARTCHAR 006A
ENCODING 106
SWIDTH 535 0
DWIDTH 45 0
BBX 39 56 0 0
BITMAP
000000003E
000000003E
000000003E
000000003E
000000003E
000000003E
000000003E
000000003E
000000003E
000000003E
000000003E
000000003E
000000003E
000000003E
000000003E
000000003E
000000003E
000000003E
000000003E
000000003E
000000003E
000000003E
000000003E
000000003E
000000003E
000000003E
000000003E
000000003E
000000003E
000000003E
000000003E
000000003E
000000003E
000000003E
000000003E
000000003E
000000003E
000000003E
000000003E
000000003E
000000003E
000000003E
000000003E
000000003E
000000003E
000000003E
000000007E
000000007E
00000000FC
00000001FC
0000000FF8
FFFFFFFFF0
FFFFFFFFF0
FFFFFFFFC0
FFFFFFFF80
FFFFFFFE00
ENDCHAR
STARTCHAR 006B
ENCODING 107
SWIDTH 595 0
DWIDTH 50 0
BBX 44 56 1 0
BITMAP
F800000007C0
F80000000FC0
F80000001FC0
F80000003FC0
F80000007FC0
F8000000FE00
F8000001FC00
F8000003F800
F8000007F000
F800000FE000
F800001FC000
F800003F8000
F800007F0000
F80000FE0000
F80001FC0000
F80003F80000
F80007F00000
F8000FE00000
F8001FC00000
F8003F800000
F8007F000000
F800FE000000
F801FC000000
F807F8000000
FFFFF0000000
FFFFE0000000
FFFFC0000000
FFFFC0000000
FFFFE0000000
FFFFF0000000
F807F8000000
F801FC000000
F800FE000000
F8007F000000
F8003F800000
F8001FC00000
F8000FE00000
F80007F00000
F80003F80000
F80001FC0000
F80000FE0000
F800007F0000
F800003F8000
F800001FC000
F800000FE000
F8000007F000
F8000003F800
F8000001FC00
F8000000FE00
F80000007F00
F80000003F80
F80000001FF0
F80000000FF0
F800000007F0
F800000003F0
F800000001F0
ENDCHAR
STARTCHAR 006C
ENCODING 108
SWIDTH 535 0
DWIDTH 45 0
BBX 39 57 1 0
BITMAP
F800000000
F800000000
F800000000
F800000000
F800000000
F800000000
F800000000
F800000000
F800000000
F800000000
F800000000
F800000000
F800000000
F800000000
F800000000
F800000000
F800000000
F800000000
F800000000
F800000000
F800000000
F800000000
F800000000
F800000000
F800000000
F800000000
F800000000
F800000000
F800000000
F800000000
F800000000
F800000000
F800000000
F800000000
F800000000
F800000000
F800000000
F800000000
F800000000
F800000000
F800000000
F800000000
F800000000
F800000000
F800000000
F800000000
F800000000
FC00000000
7C00000000
7E00000000
7F00000000
3FC0000000
1FFFFFFFFE
0FFFFFFFFE
07FFFFFFFE
03FFFFFFFE
007FFFFFFE
ENDCHAR
STARTCHAR 006D
ENCODING 109
SWIDTH 1035 0
DWIDTH 87 0
BBX 81 56 1 0
BITMAP
007FFFFFC003FFFFFF0000
03FFFFFFF80FFFFFFFC000
07FFFFFFFC3FFFFFFFF000
0FFFFFFFFE7FFFFFFFF800
1FFFFFFFFFFFFFFFFFFC00
3FC000007FFF000003FE00
7F0000001FFC000000FE00
7E0000000FF80000003F00
7C00000007F00000003F00
FC00000007E00000001F00
F800000007E00000001F00
F800000003E00000001F80
F800000003E00000001F80
F800000003E00000001F80
F800000003E00000001F80
F800000003E00000001F80
F800000003E00000001F80
F800000003E00000001F80
F800000003E00000001F80
F800000003E00000001F80
F800000003E00000001F80
F800000003E00000001F80
F800000003E00000001F80
F800000003E00000001F80
F800000003E00000001F80
F800000003E00000001F80
F800000003E00000001F80
F800000003E00000001F80
F800000003E00000001F80
F800000003E00000001F80
F800000003E00000001F80
F800000003E00000001F80
F800000003E00000001F80
F800000003E00000001F80
F800000003E00000001F80
F800000003E00000001F80
F800000003E00000001F80
F800000003E00000001F80
F800000003E00000001F80
F800000003E00000001F80
F800000003E00000001F80
F800000003E00000001F80
F800000003E00000001F80
F800000003E00000001F80
F800000003E00000001F80
F800000003E00000001F80
F800000003E00000001F80
F800000003E00000001F80
F800000003E00000001F80
F800000003E00000001F80
F800000003E00000001F80
F800000003E00000001F80
F800000003E00000001F80
F800000003E00000001F80
F800000003E00000001F80
F800000003E00000001F80
ENDCHAR
STARTCHAR 006E
ENCODING 110
SWIDTH 654 0
DWIDTH 55 0
BBX 49 56 1 0
BITMAP
007FE000001F80
03FFFC00001F80
07FFFE00001F80
0FFFFF00001F80
1FFFFF80001F80
3FC03FC0001F80
7F000FE0001F80
7E0007F0001F80
7C0003F8001F80
FC0001FC001F80
F80000FE001F80
F800007F001F80
F800003F801F80
F800001FC01F80
F800000FE01F80
F8000007F01F80
F8000003F81F80
F8000001FC1F80
F8000000FE1F80
F80000007F1F80
F80000003F9F80
F80000001FDF80
F80000000FFF80
F800000007FF80
F800000003FF80
F800000001FF80
F800000000FF80
F8000000007F80
F8000000003F80
F8000000001F80
F8000000001F80
F8000000001F80
F8000000001F80
F8000000001F80
F8000000001F80
F8000000001F80
F8000000001F80
F8000000001F80
F8000000001F80
F8000000001F80
F8000000001F80
F8000000001F80
F8000000001F80
F8000000001F80
F8000000001F80
F8000000001F80
F8000000001F80
F8000000001F80
F8000000001F80
F8000000001F80
F8000000001F80
F8000000001F80
F8000000001F80
F8000000001F80
F8000000001F80
F8000000001F80
ENDCHAR
STARTCHAR 006F
ENCODING 111
SWIDTH 583 0
DWIDTH 49 0
BBX 43 56 1 0
BITMAP
007FFFFFC000
03FFFFFFF800
07FFFFFFFC00
0FFFFFFFFE00
1FFFFFFFFF00
3FC000007F80
7F0000001FC0
7E0000000FC0
7C00000007C0
FC00000007E0
F800000007E0
F800000003E0
F800000003E0
F800000003E0
F800000003E0
F800000003E0
F800000003E0
F800000003E0
F800000003E0
F800000003E0
F800000003E0
F800000003E0
F800000003E0
F800000003E0
F800000003E0
F800000003E0
F800000003E0
F800000003E0
F800000003E0
F800000003E0
F800000003E0
F800000003E0
F800000003E0
F800000003E0
F800000003E0
F800000003E0
F800000003E0
F800000003E0
F800000003E0
F800000003E0
F800000003E0
F800000003E0
F800000003E0
F800000003E0
F800000003E0
F800000007E0
FC00000007E0
FC00000007C0
7E0000000FC0
7F0000001FC0
3FE00000FF80
1FFFFFFFFF00
0FFFFFFFFE00
07FFFFFFFC00
03FFFFFFF800
007FFFFFC000
ENDCHAR
STARTCHAR 0070
ENCODING 112
SWIDTH 583 0
DWIDTH 49 0
BBX 43 56 1 0
BITMAP
007FFFFFC000
03FFFFFFF800
07FFFFFFFC00
0FFFFFFFFE00
1FFFFFFFFF00
3FC000007F80
7F0000001FC0
7E0000000FC0
7C00000007C0
FC00000007E0
F800000007E0
F800000003E0
F800000003E0
F800000003E0
F800000003E0
F800000003E0
F800000003E0
F800000003E0
F800000003E0
F800000003E0
F800000003E0
F800000003E0
F800000003E0
F800000003E0
F800000003E0
F800000003E0
F800000007E0
F800000007E0
F800000007C0
F80000000FC0
F80000001FC0
F80000007F80
FFFFFFFFFF00
FFFFFFFFFF00
FFFFFFFFFC00
FFFFFFFFF800
FFFFFFFFE000
F80000000000
F80000000000
F80000000000
F80000000000
F80000000000
F80000000000
F80000000000
F80000000000
F80000000000
F80000000000
F80000000000
F80000000000
F80000000000
F80000000000
F80000000000
F80000000000
F80000000000
F80000000000
F80000000000
ENDCHAR
STARTCHAR 0071
ENCODING 113
SWIDTH 583 0
DWIDTH 49 0
BBX 43 62 1 -6
BITMAP
007FFFFFC000
03FFFFFFF800
07FFFFFFFC00
0FFFFFFFFE00
1FFFFFFFFF00
3FC000007F80
7F0000001FC0
7E0000000FC0
7C00000007E0
FC00000007E0
FC00000003E0
F800000003E0
F800000003E0
F800000003E0
F800000003E0
F800000003E0
F800000003E0
F800000003E0
F800000003E0
F800000003E0
F800000003E0
F800000003E0
F800000003E0
F800000003E0
F800000003E0
F800000003E0
F800000003E0
F800000003E0
F800000003E0
F800000003E0
F800000003E0
F800000003E0
F800000003E0
F800000003E0
F800000003E0
F800000003E0
F800000003E0
F800000003E0
F800000003E0
F800000003E0
F800000003E0
F800000003E0
F800000003E0
F800000003E0
F800000003E0
FC00000003E0
FC00000007E0
FC00000007E0
7E0000000FC0
7F0000001FC0
3FE00000FF80
1FFFE7FFFF00
0FFFFFFFFE00
07FFFFFFFC00
03FFFFFFF800
00FFFFFFC000
0003FE000000
0007F8000000
0007F0000000
0003E0000000
0001C0000000
000080000000
ENDCHAR
STARTCHAR 0072
ENCODING 114
SWIDTH 583 0
DWIDTH 49 0
BBX 43 56 1 0
BITMAP
007FFFFFC000
03FFFFFFF800
07FFFFFFFC00
0FFFFFFFFE00
1FFFFFFFFF00
3FC000007F80
7F0000001FC0
7E0000000FC0
7C00000007C0
FC00000007E0
F800000007E0
F800000003E0
F800000003E0
F800000003E0
F800000003E0
F800000003E0
F800000003E0
F800000003E0
F800000003E0
F800000007E0
F800000007E0
F80000000FC0
F80000000FC0
F80000003F80
FFFFFFFFFF80
FFFFFFFFFF00
FFFFFFFFFE00
FFFFFFFFFC00
FFFFFFFFF000
FFFFFFFF0000
F8001FF80000
F8000FFE0000
F80003FF0000
F80000FFC000
F800007FE000
F800001FF800
F800000FFE00
F8000003FF00
F8000000FF80
F80000007F80
F80000001FC0
F80000000FC0
F800000007E0
F800000007E0
F800000007E0
F800000003E0
F800000003E0
F800000003E0
F800000003E0
F800000003E0
F800000003E0
F800000003E0
F800000003E0
F800000003E0
F800000003E0
F800000003E0
ENDCHAR
STARTCHAR 0073
ENCODING 115
SWIDTH 583 0
DWIDTH 49 0
BBX 43 56 1 0
BITMAP
007FFFFFC000
03FFFFFFF800
07FFFFFFFC00
0FFFFFFFFE00
1FFFFFFFFF00
3FC000007F80
7F0000001FC0
7E0000000FC0
7C00000007C0
FC00000007E0
F800000007E0
F800000003E0
F800000003E0
F800000003E0
F800000003E0
F80000000000
FC0000000000
7C0000000000
7E0000000000
7F0000000000
3FC000000000
1FF800000000
0FFE00000000
07FFC0000000
03FFF0000000
00FFFC000000
001FFF800000
0007FFE00000
0000FFFC0000
00003FFF0000
00000FFFC000
000001FFF800
0000007FFC00
0000000FFE00
00000003FF00
000000007F80
000000001FC0
000000000FC0
0000000007C0
0000000007E0
0000000007E0
F800000003E0
F800000003E0
F800000003E0
F800000003E0
F800000007E0
FC00000007E0
FC00000007C0
7E0000000FC0
7F0000001FC0
3FE00000FF80
1FFFFFFFFF00
0FFFFFFFFE00
07FFFFFFFC00
03FFFFFFF800
007FFFFFC000
ENDCHAR
STARTCHAR 0074
ENCODING 116
SWIDTH 571 0
DWIDTH 48 0
BBX 43 56 0 0
BITMAP
FFFFFFFFFFE0
FFFFFFFFFFE0
FFFFFFFFFFE0
FFFFFFFFFFE0
FFFFFFFFFFE0
00001F000000
00001F000000
00001F000000
00001F000000
00001F000000
00001F000000
00001F000000
00001F000000
00001F000000
00001F000000
00001F000000
00001F000000
00001F000000
00001F000000
00001F000000
00001F000000
00001F000000
00001F000000
00001F000000
00001F000000
00001F000000
00001F000000
00001F000000
00001F000000
00001F000000
00001F000000
00001F000000
00001F000000
00001F000000
00001F000000
00001F000000
00001F000000
00001F000000
00001F000000
00001F000000
00001F000000
00001F000000
00001F000000
00001F000000
00001F000000
00001F000000
00001F000000
00001F000000
00001F000000
00001F000000
00001F000000
00001F000000
00001F000000
00001F000000
00001F000000
00001F000000
ENDCHAR
STARTCHAR 0075
ENCODING 117
SWIDTH 583 0
DWIDTH 49 0
BBX 43 56 1 0
BITMAP
F800000003E0
F800000003E0
F800000003E0
F800000003E0
F800000003E0
F800000003E0
F800000003E0
F800000003E0
F800000003E0
F800000003E0
F800000003E0
F800000003E0
F800000003E0
F800000003E0
F800000003E0
F800000003E0
F800000003E0
F800000003E0
F800000003E0
F800000003E0
F800000003E0
F800000003E0
F800000003E0
F800000003E0
F800000003E0
F800000003E0
F800000003E0
F800000003E0
F800000003E0
F800000003E0
F800000003E0
F800000003E0
F800000003E0
F800000003E0
F800000003E0
F800000003E0
F800000003E0
F800000003E0
F800000003E0
F800000003E0
F800000003E0
F800000003E0
F800000003E0
F800000003E0
F800000003E0
F800000007E0
FC00000007E0
FC00000007C0
7E0000000FC0
7F0000001FC0
3FE00000FF80
1FFFFFFFFF00
0FFFFFFFFE00
07FFFFFFFC00
03FFFFFFF800
007FFFFFC000
ENDCHAR
STARTCHAR 0076
ENCODING 118
SWIDTH 678 0
DWIDTH 57 0
BBX 50 57 1 -1
BITMAP
F80000000007C0
F80000000007C0
F80000000007C0
F80000000007C0
F80000000007C0
F80000000007C0
F80000000007C0
F80000000007C0
F80000000007C0
F80000000007C0
F80000000007C0
F80000000007C0
F80000000007C0
F80000000007C0
F80000000007C0
F80000000007C0
F80000000007C0
F80000000007C0
F80000000007C0
F80000000007C0
F80000000007C0
F80000000007C0
F80000000007C0
F80000000007C0
F80000000007C0
F80000000007C0
F80000000007C0
F80000000007C0
F80000000007C0
F80000000007C0
F80000000007C0
F80000000007C0
F80000000007C0
F80000000007C0
F80000000007C0
F80000000007C0
FC0000000007C0
FC0000000007C0
FC000000000FC0
7E000000001FC0
7F800000003F80
3FC0000000FF80
1FF0000001FF00
0FF8000007FE00
07FE00000FFC00
03FF00003FF000
00FFC0007FE000
007FE001FF8000
001FF803FF0000
000FFC0FFC0000
0003FF1FF00000
0001FFFFE00000
00007FFF800000
00003FFF000000
00000FFC000000
000003F8000000
000001E0000000
ENDCHAR
STARTCHAR 0077
ENCODING 119
SWIDTH 1214 0
DWIDTH 102 0
BBX 96 57 1 -1
BITMAP
F80000000007C0000000003F
F80000000007C0000000003F
F80000000007C0000000003F
F80000000007C0000000003F
F80000000007C0000000003F
F80000000007C0000000003F
F80000000007C0000000003F
F80000000007C0000000003F
F80000000007C0000000003F
F80000000007C0000000003F
F80000000007C0000000003F
F80000000007C0000000003F
F80000000007C0000000003F
F80000000007C0000000003F
F80000000007C0000000003F
F80000000007C0000000003F
F80000000007C0000000003F
F80000000007C0000000003F
F80000000007C0000000003F
F80000000007C0000000003F
F80000000007C0000000003F
F80000000007C0000000003F
F80000000007C0000000003F
F80000000007C0000000003F
F80000000007C0000000003F
F80000000007C0000000003F
F80000000007C0000000003F
F80000000007C0000000003F
F80000000007C0000000003F
F80000000007C0000000003F
F80000000007C0000000003F
F80000000007C0000000003F
F80000000007C0000000003F
F80000000007C0000000003F
F80000000007C0000000003F
F80000000007C0000000003E
FC0000000007E0000000003E
FC000000000FE0000000003E
7E000000000FF0000000007E
7E000000001FF800000000FE
7F800000003FFC00000001FC
3FC0000000FFFE00000007F8
1FF0000001FEFF8000000FF8
0FF8000007FC7FC000003FF0
07FE00000FF83FF000007FE0
03FF00003FF00FF80001FF80
00FFC000FFC007FE0003FF00
007FE001FF8001FF800FFC00
001FF807FE0000FFC01FF000
0007FC0FFC00003FF07FE000
0003FF3FF000001FF8FF8000
0000FFFFE0000007FFFF0000
00007FFF80000003FFFC0000
00001FFF00000000FFF80000
00000FFC000000007FE00000
000003F8000000001FC00000
000001E0000000000F000000
ENDCHAR
STARTCHAR 0078
ENCODING 120
SWIDTH 678 0
DWIDTH 57 0
BBX 50 56 1 0
BITMAP
F80000000007C0
F80000000007C0
F80000000007C0
F80000000007C0
F80000000007C0
F80000000007C0
F80000000007C0
F80000000007C0
FC0000000007C0
FC000000000FC0
7E000000000FC0
7F000000001F80
7F800000007F80
3FE0000000FF00
1FF0000003FE00
0FFC00000FFC00
03FF00001FF800
01FF80007FE000
007FE001FFC000
003FF803FF0000
000FFC0FFC0000
0003FF1FF80000
0001FFFFE00000
00007FFFC00000
00001FFF000000
00001FFE000000
00007FFF800000
0000FFFFE00000
0003FF3FF00000
0007FE0FFC0000
001FF807FE0000
007FE001FF8000
00FFC0007FE000
03FF00003FF000
07FE00000FFC00
1FF8000007FE00
3FE0000001FF00
3FC00000007F80
7F000000003F80
7E000000001FC0
FC000000000FC0
FC0000000007C0
F80000000007C0
F80000000007C0
F80000000007C0
F80000000007C0
F80000000007C0
F80000000007C0
F80000000007C0
F80000000007C0
F80000000007C0
F80000000007C0
F80000000007C0
F80000000007C0
F80000000007C0
F80000000007C0
ENDCHAR
STARTCHAR 0079
ENCODING 121
SWIDTH 583 0
DWIDTH 49 0
BBX 43 56 1 0
BITMAP
F800000003E0
F800000003E0
F800000003E0
F800000003E0
F800000003E0
F800000003E0
F800000003E0
F800000003E0
F800000003E0
F800000003E0
F800000003E0
F800000003E0
F800000003E0
F800000003E0
F800000003E0
F800000003E0
F800000003E0
F800000003E0
F800000003E0
F800000003E0
F800000003E0
F800000003E0
F800000003E0
F800000003E0
F800000003E0
F800000003E0
F800000003E0
FC00000003E0
FC00000003E0
7E00000003E0
7F00000003E0
3FC0000003E0
3FFFFFFFFFE0
1FFFFFFFFFE0
0FFFFFFFFFE0
03FFFFFFFFE0
00FFFFFFFFE0
0000000003E0
0000000003E0
0000000003E0
0000000003E0
0000000003E0
0000000003E0
0000000003E0
0000000003E0
0000000007E0
0000000007E0
0000000007C0
000000000FC0
000000001FC0
00000000FF80
0FFFFFFFFF00
0FFFFFFFFE00
0FFFFFFFFC00
0FFFFFFFF800
0FFFFFFFC000
ENDCHAR
STARTCHAR 007A
ENCODING 122
SWIDTH 583 0
DWIDTH 49 0
BBX 43 56 1 0
BITMAP
FFFFFFFFC000
FFFFFFFFF800
FFFFFFFFFC00
FFFFFFFFFE00
FFFFFFFFFF00
000000007F80
000000001FC0
000000000FC0
0000000007C0
0000000007E0
0000000007E0
0000000003E0
0000000003E0
0000000007E0
0000000007E0
0000000007E0
000000000FC0
000000001FC0
000000007F80
00000001FF80
00000007FF00
0000000FFC00
0000003FF800
000000FFE000
000003FF8000
00000FFE0000
00001FFC0000
00007FF00000
0001FFC00000
0007FF000000
001FFC000000
003FF8000000
00FFE0000000
03FF80000000
07FE00000000
1FF800000000
3FF000000000
3FC000000000
7F0000000000
7E0000000000
FC0000000000
FC0000000000
F80000000000
F80000000000
F80000000000
F80000000000
FC0000000000
FC0000000000
7E0000000000
7F0000000000
3FE000000000
1FFFFFFFFFE0
0FFFFFFFFFE0
07FFFFFFFFE0
03FFFFFFFFE0
007FFFFFFFE0
ENDCHAR
STARTCHAR 007B
ENCODING 123
SWIDTH 666 0
DWIDTH 56 0
BBX 0 0 0 0
BITMAP
ENDCHAR
STARTCHAR 007C
ENCODING 124
SWIDTH 333 0
DWIDTH 28 0
BBX 0 0 0 0
BITMAP
ENDCHAR
STARTCHAR 007D
ENCODING 125
SWIDTH 666 0
DWIDTH 56 0
BBX 0 0 0 0
BITMAP
ENDCHAR
STARTCHAR 007E
ENCODING 126
SWIDTH 833 0
DWIDTH 70 0
BBX 0 0 0 0
BITMAP
ENDCHAR
STARTCHAR 00A0
ENCODING 160
SWIDTH 833 0
DWIDTH 70 0
BBX 0 0 0 0
BITMAP
ENDCHAR
STARTCHAR 00A9
ENCODING 169
SWIDTH 630 0
DWIDTH 53 0
BBX 47 56 1 0
BITMAP
007FFFFFFC00
03FFFFFFFF00
07FFFFFFFFC0
0FFFFFFFFFE0
1FFFFFFFFFF0
3FC0000007F8
7F00000001F8
7E00000000FC
7C00000000FC
FC000000007C
F8000000007E
F8000000007E
F8000000007E
F800FFFFC07E
F801FFFFC07E
F803FFFFC07E
F807FFFFC07E
F807FFFFC07E
F80FC000007E
F80FC000007E
F80FC000007E
F80FC000007E
F80FC000007E
F80FC000007E
F80FC000007E
F80FC000007E
F80FC000007E
F80FC000007E
F80FC000007E
F80FC000007E
F80FC000007E
F80FC000007E
F80FC000007E
F80FC000007E
F80FC000007E
F80FC000007E
F80FC000007E
F80FC000007E
F807FFFFC07E
F807FFFFC07E
F803FFFFC07E
F801FFFFC07E
F800FFFFC07E
F8000000007E
F8000000007E
F8000000007E
FC000000007C
FC00000000FC
7E00000000FC
7F00000001F8
3FE000000FF8
1FFFFFFFFFF0
0FFFFFFFFFE0
07FFFFFFFFC0
03FFFFFFFF80
007FFFFFFC00
ENDCHAR
STARTCHAR 00AE
ENCODING 174
SWIDTH 630 0
DWIDTH 53 0
BBX 47 56 1 0
BITMAP
007FFFFFFC00
03FFFFFFFF00
07FFFFFFFFC0
0FFFFFFFFFE0
1FFFFFFFFFF0
3FC0000007F8
7F00000001F8
7E00000000FC
7C00000000FC
FC000000007C
F8000000007E
F8000000007E
F8000000007E
F801FFFF007E
F803FFFF807E
F807FFFFC07E
F80FFFFFE07E
F80FFFFFE07E
F81F8003E07E
F81F8003E07E
F81F8003E07E
F81F8003E07E
F81F8003E07E
F81F8003E07E
F81F8007E07E
F81FFFFFE07E
F81FFFFFC07E
F81FFFFFC07E
F81FFFFFC07E
F81FFFFFE07E
F81F8007E07E
F81F8003E07E
F81F8003E07E
F81F8003E07E
F81F8003E07E
F81F8003E07E
F81F8003E07E
F81F8003E07E
F81F8003E07E
F81F8003E07E
F81F8003E07E
F81F8003E07E
F81F8003E07E
F8000000007E
F8000000007E
F8000000007E
FC000000007C
FC00000000FC
7E00000000FC
7F00000001F8
3FE000000FF8
1FFFFFFFFFF0
0FFFFFFFFFE0
07FFFFFFFFC0
03FFFFFFFF80
007FFFFFFC00
ENDCHAR
STARTCHAR 00C4
ENCODING 196
SWIDTH 583 0
DWIDTH 49 0
BBX 43 66 1 -1
BITMAP
000F807C0000
000F807C0000
000F807C0000
000F807C0000
000F807C0000
000000000000
000000000000
000000000000
000000000000
00FFFFFFE000
03FFFFFFF800
07FFFFFFFC00
1FFFFFFFFE00
1FFFFFFFFF00
3FC000007F80
7F0000001FC0
7E0000000FC0
FC00000007C0
FC00000007E0
F800000007E0
F800000003E0
F800000003E0
F800000003E0
F800000003E0
F800000003E0
F800000003E0
F800000003E0
F800000003E0
F800000003E0
F800000003E0
F800000003E0
F800000003E0
F800000003E0
F800000003E0
F800000003E0
F800000003E0
FFF8000003E0
FFFF000003E0
FFFF800003E0
FFFFE00003E0
FFFFE00003E0
F81FF00003E0
F803F80003E0
F801FC0003E0
F800FE0003E0
F8007F0003E0
F8003F8003E0
F8001FC003E0
F8000FE003E0
F80007F003E0
F80003F803E0
F80001FC03E0
F80000FE03E0
F80000FF03E0
F800007F83E0
F800003FC3E0
F800001FE3E0
F800000FF3E0
F8000007FBE0
F8000003FFE0
F8000001FFE0
F8000000FFE0
F80000007FE0
F80000003FC0
F80000001FC0
000000000F00
ENDCHAR
STARTCHAR 00D6
ENCODING 214
SWIDTH 583 0
DWIDTH 49 0
BBX 43 65 1 0
BITMAP
000F807C0000
000F807C0000
000F807C0000
000F807C0000
000F807C0000
000000000000
000000000000
000000000000
000000000000
00FFFFFFE000
03FFFFFFF800
07FFFFFFFC00
1FFFFFFFFE00
1FFFFFFFFF00
3FC000007F80
7F0000001FC0
7E0000000FC0
FC00000007C0
FC00000007E0
F800000007E0
F800000003E0
F800000003E0
F800000003E0
F800000003E0
F800000003E0
F800000003E0
F800000003E0
F800000003E0
F800000003E0
F800000003E0
F800000003E0
F800000003E0
F800000003E0
F800000003E0
F800000003E0
F800000003E0
F800000003E0
F800000003E0
F800000003E0
F800000003E0
F800000003E0
F800000003E0
F800000003E0
F800000003E0
F800000003E0
F800000003E0
F800000003E0
F800000003E0
F800000003E0
F800000003E0
F800000003E0
F800000003E0
F800000003E0
F800000003E0
F800000007E0
FC00000007E0
FC00000007C0
7E0000000FC0
7F0000001FC0
3FE00000FF80
1FFFFFFFFF00
0FFFFFFFFE00
07FFFFFFFC00
03FFFFFFF800
007FFFFFC000
ENDCHAR
STARTCHAR 00DC
ENCODING 220
SWIDTH 583 0
DWIDTH 49 0
BBX 43 65 1 0
BITMAP
000F807C0000
000F807C0000
000F807C0000
000F807C0000
000F807C0000
000000000000
000000000000
000000000000
000000000000
F800000003E0
F800000003E0
F800000003E0
F800000003E0
F800000003E0
F800000003E0
F800000003E0
F800000003E0
F800000003E0
F800000003E0
F800000003E0
F800000003E0
F800000003E0
F800000003E0
F800000003E0
F800000003E0
F800000003E0
F800000003E0
F800000003E0
F800000003E0
F800000003E0
F800000003E0
F800000003E0
F800000003E0
F800000003E0
F800000003E0
F800000003E0
F800000003E0
F800000003E0
F800000003E0
F800000003E0
F800000003E0
F800000003E0
F800000003E0
F800000003E0
F800000003E0
F800000003E0
F800000003E0
F800000003E0
F800000003E0
F800000003E0
F800000003E0
F800000003E0
F800000003E0
F800000003E0
F800000007E0
FC00000007E0
FC00000007C0
7E0000000FC0
7F0000001FC0
3FE00000FF80
1FFFFFFFFF00
0FFFFFFFFE00
07FFFFFFFC00
03FFFFFFF800
007FFFFFC000
ENDCHAR
STARTCHAR 00E4
ENCODING 228
SWIDTH 583 0
DWIDTH 49 0
BBX 43 66 1 -1
BITMAP
000F807C0000
000F807C0000
000F807C0000
000F807C0000
000F807C0000
000000000000
000000000000
000000000000
000000000000
00FFFFFFE000
03FFFFFFF800
07FFFFFFFC00
1FFFFFFFFE00
1FFFFFFFFF00
3FC000007F80
7F0000001FC0
7E0000000FC0
FC00000007C0
FC00000007E0
F800000007E0
F800000003E0
F800000003E0
F800000003E0
F800000003E0
F800000003E0
F800000003E0
F800000003E0
F800000003E0
F800000003E0
F800000003E0
F800000003E0
F800000003E0
F800000003E0
F800000003E0
F800000003E0
F800000003E0
FFF8000003E0
FFFF000003E0
FFFF800003E0
FFFFE00003E0
FFFFE00003E0
F81FF00003E0
F803F80003E0
F801FC0003E0
F800FE0003E0
F8007F0003E0
F8003F8003E0
F8001FC003E0
F8000FE003E0
F80007F003E0
F80003F803E0
F80001FC03E0
F80000FE03E0
F80000FF03E0
F800007F83E0
F800003FC3E0
F800001FE3E0
F800000FF3E0
F8000007FBE0
F8000003FFE0
F8000001FFE0
F8000000FFE0
F80000007FE0
F80000003FC0
F80000001FC0
000000000F00
ENDCHAR
STARTCHAR 00F6
ENCODING 246
SWIDTH 583 0
DWIDTH 49 0
BBX 43 65 1 0
BITMAP
000F807C0000
000F807C0000
000F807C0000
000F807C0000
000F807C0000
000000000000
000000000000
000000000000
000000000000
00FFFFFFE000
03FFFFFFF800
07FFFFFFFC00
1FFFFFFFFE00
1FFFFFFFFF00
3FC000007F80
7F0000001FC0
7E0000000FC0
FC00000007C0
FC00000007E0
F800000007E0
F800000003E0
F800000003E0
F800000003E0
F800000003E0
F800000003E0
F800000003E0
F800000003E0
F800000003E0
F800000003E0
F800000003E0
F800000003E0
F800000003E0
F800000003E0
F800000003E0
F800000003E0
F800000003E0
F800000003E0
F800000003E0
F800000003E0
F800000003E0
F800000003E0
F800000003E0
F800000003E0
F800000003E0
F800000003E0
F800000003E0
F800000003E0
F800000003E0
F800000003E0
F800000003E0
F800000003E0
F800000003E0
F800000003E0
F800000003E0
F800000007E0
FC00000007E0
FC00000007C0
7E0000000FC0
7F0000001FC0
3FE00000FF80
1FFFFFFFFF00
0FFFFFFFFE00
07FFFFFFFC00
03FFFFFFF800
007FFFFFC000
ENDCHAR
STARTCHAR 00FC
ENCODING 252
SWIDTH 583 0
DWIDTH 49 0
BBX 43 65 1 0
BITMAP
000F807C0000
000F807C0000
000F807C0000
000F807C0000
000F807C0000
000000000000
000000000000
000000000000
000000000000
F800000003E0
F800000003E0
F800000003E0
F800000003E0
F800000003E0
F800000003E0
F800000003E0
F800000003E0
F800000003E0
F800000003E0
F800000003E0
F800000003E0
F800000003E0
F800000003E0
F800000003E0
F800000003E0
F800000003E0
F800000003E0
F800000003E0
F800000003E0
F800000003E0
F800000003E0
F800000003E0
F800000003E0
F800000003E0
F800000003E0
F800000003E0
F800000003E0
F800000003E0
F800000003E0
F800000003E0
F800000003E0
F800000003E0
F800000003E0
F800000003E0
F800000003E0
F800000003E0
F800000003E0
F800000003E0
F800000003E0
F800000003E0
F800000003E0
F800000003E0
F800000003E0
F800000003E0
F800000007E0
FC00000007E0
FC00000007C0
7E0000000FC0
7F0000001FC0
3FE00000FF80
1FFFFFFFFF00
0FFFFFFFFE00
07FFFFFFFC00
03FFFFFFF800
007FFFFFC000
ENDCHAR
STARTCHAR 2010
ENCODING 8208
SWIDTH 404 0
DWIDTH 34 0
BBX 27 6 1 26
BITMAP
FFFFFFE0
FFFFFFE0
FFFFFFE0
FFFFFFE0
FFFFFFE0
FFFFFFE0
ENDCHAR
ENDFONT
